<svg viewBox="0 0 32 32" xmlns="http://www.w3.org/2000/svg">
  <!-- Background avec gradient -->
  <defs>
    <linearGradient id="bgGradient" x1="0%" y1="0%" x2="100%" y2="100%">
      <stop offset="0%" style="stop-color:#FF6B35;stop-opacity:1" />
      <stop offset="100%" style="stop-color:#F7931E;stop-opacity:1" />
    </linearGradient>
    <linearGradient id="plateGradient" x1="0%" y1="0%" x2="100%" y2="100%">
      <stop offset="0%" style="stop-color:#FFFFFF;stop-opacity:1" />
      <stop offset="100%" style="stop-color:#F8F8F8;stop-opacity:1" />
    </linearGradient>
  </defs>

  <!-- Forme de base moderne (rounded square) -->
  <rect x="2" y="2" width="28" height="28" rx="8" ry="8" fill="url(#bgGradient)"/>

  <!-- Assiette principale avec ombre -->
  <ellipse cx="16.5" cy="16.5" rx="9" ry="9" fill="rgba(0,0,0,0.1)"/>
  <circle cx="16" cy="16" r="9" fill="url(#plateGradient)" stroke="rgba(255,255,255,0.8)" stroke-width="0.5"/>

  <!-- Motif alimentaire stylisé (comme un plat gastronomique vu du dessus) -->
  <!-- Base du plat -->
  <circle cx="16" cy="16" r="6" fill="#E8F4F8" opacity="0.3"/>

  <!-- Élément principal (comme une protéine) -->
  <ellipse cx="15" cy="14" rx="2.5" ry="1.8" fill="#8B4513"/>

  <!-- Accompagnements (légumes stylisés) -->
  <circle cx="19" cy="17" r="1.2" fill="#4A7C59"/>
  <circle cx="12" cy="18" r="1" fill="#E74C3C"/>
  <circle cx="18" cy="12" r="0.8" fill="#F39C12"/>

  <!-- Sauce/garniture -->
  <circle cx="14" cy="19" r="0.4" fill="#2C3E50"/>
  <circle cx="17" cy="19.5" r="0.3" fill="#2C3E50"/>
  <circle cx="20" cy="14" r="0.3" fill="#2C3E50"/>

  <!-- Étoiles de notation intégrées -->
  <g opacity="0.6">
    <path d="M10 8 L10.5 9.5 L12 9.5 L11 10.5 L11.5 12 L10 11 L8.5 12 L9 10.5 L8 9.5 L9.5 9.5 Z" fill="#FFD700" transform="scale(0.4)"/>
    <path d="M22 8 L22.5 9.5 L24 9.5 L23 10.5 L23.5 12 L22 11 L20.5 12 L21 10.5 L20 9.5 L21.5 9.5 Z" fill="#FFD700" transform="scale(0.4)"/>
    <path d="M26 20 L26.5 21.5 L28 21.5 L27 22.5 L27.5 24 L26 23 L24.5 24 L25 22.5 L24 21.5 L25.5 21.5 Z" fill="#FFD700" transform="scale(0.4)"/>
  </g>

  <!-- Highlight subtil pour donner du volume -->
  <ellipse cx="13" cy="12" rx="2" ry="1" fill="rgba(255,255,255,0.3)"/>
</svg>
